<?xml version="1.0" encoding="UTF-8" ?>
<!DOCTYPE svg PUBLIC "-//W3C//DTD SVG 1.1//EN" "http://www.w3.org/Graphics/SVG/1.1/DTD/svg11.dtd">
<svg width="133pt" height="37pt" viewBox="0 0 133 37" version="1.1" xmlns="http://www.w3.org/2000/svg">
<path fill="#ffffff" d=" M 0.00 0.00 L 133.00 0.00 L 133.00 37.00 L 0.00 37.00 L 0.00 0.00 Z" />
<path fill="#55575c" d=" M 87.01 9.05 C 89.06 7.01 92.16 7.37 94.80 7.12 C 94.77 8.46 94.74 9.80 94.71 11.14 C 91.53 10.52 89.90 13.09 90.32 15.97 C 91.55 15.98 92.77 16.00 94.00 16.01 C 94.00 16.87 94.00 18.59 94.00 19.45 C 92.82 19.46 91.65 19.47 90.48 19.49 C 90.46 24.66 90.47 29.83 90.46 35.00 C 88.73 35.00 87.00 35.00 85.26 34.99 C 85.27 29.83 85.27 24.67 85.26 19.51 C 84.63 19.49 83.37 19.45 82.73 19.43 C 82.73 18.58 82.73 16.88 82.73 16.03 C 83.34 16.02 84.56 15.99 85.17 15.97 C 85.33 13.61 85.05 10.80 87.01 9.05 Z" />
<path fill="#55575c" d=" M 37.27 7.73 C 39.00 7.73 40.73 7.73 42.46 7.73 C 42.47 9.24 42.47 10.75 42.46 12.26 C 40.73 12.27 39.00 12.27 37.27 12.27 C 37.26 10.76 37.27 9.24 37.27 7.73 Z" />
<path fill="#55575c" d=" M 1.26 34.99 C 1.26 26.50 1.27 18.00 1.26 9.51 C 6.30 9.91 11.64 8.62 16.45 10.57 C 21.27 12.72 22.31 19.97 18.33 23.40 C 15.14 26.39 10.46 25.66 6.47 25.75 C 6.47 28.83 6.46 31.92 6.47 35.00 C 4.73 35.00 3.00 34.99 1.26 34.99 Z" />
<path fill="#ffffff" d=" M 6.48 13.45 C 8.62 13.47 10.80 13.31 12.92 13.70 C 16.22 14.79 16.48 20.03 13.29 21.38 C 11.07 21.98 8.73 21.69 6.46 21.74 C 6.47 18.98 6.46 16.22 6.48 13.45 Z" />
<path fill="#55575c" d=" M 24.00 15.96 C 26.01 16.21 29.25 15.03 29.28 18.10 C 30.55 16.50 32.35 15.69 34.36 15.47 C 34.42 17.12 34.46 18.76 34.52 20.41 C 32.77 20.51 31.01 20.61 29.26 20.71 C 29.27 25.47 29.26 30.23 29.26 35.00 C 27.51 35.00 25.76 35.00 24.00 35.00 C 24.00 28.65 24.00 22.31 24.00 15.96 Z" />
<path fill="#55575c" d=" M 37.26 16.01 C 39.00 16.00 40.73 16.00 42.46 16.00 C 42.47 22.33 42.47 28.67 42.46 35.00 C 40.73 35.00 39.00 35.00 37.26 35.00 C 37.27 28.67 37.27 22.34 37.26 16.01 Z" />
<path fill="#55575c" d=" M 44.29 16.00 C 46.09 16.01 47.89 16.01 49.69 16.02 C 50.83 20.67 52.22 25.25 53.29 29.92 C 54.20 25.22 55.60 20.64 56.75 16.00 C 58.54 16.00 60.33 16.00 62.11 16.00 C 59.96 22.33 57.83 28.67 55.63 34.99 C 53.99 35.00 52.35 35.00 50.71 35.00 C 48.62 28.65 46.41 22.34 44.29 16.00 Z" />
<path fill="#55575c" d=" M 65.18 17.07 C 68.97 15.94 73.11 15.02 76.96 16.40 C 78.96 16.98 80.25 19.00 80.37 21.01 C 80.64 25.69 80.38 30.37 80.47 35.05 C 78.74 34.70 75.77 35.96 75.52 33.38 C 71.92 36.69 64.08 35.71 63.98 29.94 C 63.70 24.02 71.00 23.01 75.42 23.99 C 75.16 22.57 75.54 20.66 73.92 19.94 C 71.27 19.28 68.63 20.30 66.09 20.93 C 65.86 19.96 65.41 18.04 65.18 17.07 Z" />
<path fill="#55575c" d=" M 100.27 16.39 C 103.56 15.16 107.50 15.56 110.39 17.57 C 112.87 19.56 113.33 23.03 113.29 26.01 C 113.24 29.14 112.25 32.82 109.13 34.21 C 104.53 36.55 97.07 35.27 95.72 29.59 C 94.61 24.96 94.94 18.21 100.27 16.39 Z" />
<path fill="#55575c" d=" M 114.51 16.00 C 116.41 16.00 118.31 15.99 120.21 15.99 C 121.23 18.05 122.22 20.12 123.23 22.18 C 124.21 20.12 125.16 18.06 126.12 16.00 C 128.04 16.00 129.97 16.00 131.90 16.01 C 130.06 19.15 128.15 22.25 126.22 25.34 C 128.14 28.59 130.14 31.78 132.16 34.96 C 130.22 34.97 128.29 34.99 126.35 35.01 C 125.32 32.94 124.30 30.87 123.27 28.81 C 122.21 30.86 121.18 32.93 120.14 35.00 C 118.21 35.00 116.28 34.99 114.36 34.99 C 116.35 31.78 118.33 28.57 120.23 25.31 C 118.32 22.21 116.42 19.11 114.51 16.00 Z" />
<path fill="#ffffff" d=" M 102.33 20.18 C 106.83 17.76 109.02 23.69 107.95 27.20 C 108.45 30.90 103.08 32.90 101.19 29.68 C 100.15 26.76 99.63 22.33 102.33 20.18 Z" />
<path fill="#ffffff" d=" M 70.19 27.15 C 71.76 26.36 73.57 26.92 75.23 26.99 C 75.26 28.30 75.27 29.61 75.29 30.92 C 73.49 31.27 71.67 31.50 69.83 31.61 C 69.56 30.19 68.59 28.17 70.19 27.15 Z" />
</svg>
