<?xml version="1.0" encoding="UTF-8" ?>
<!DOCTYPE svg PUBLIC "-//W3C//DTD SVG 1.1//EN" "http://www.w3.org/Graphics/SVG/1.1/DTD/svg11.dtd">
<svg width="943pt" height="941pt" viewBox="0 0 943 941" version="1.1" xmlns="http://www.w3.org/2000/svg">
<path fill="#bdbdbd" d=" M 0.00 0.00 L 0.84 0.00 C 109.27 66.38 217.97 132.31 326.43 198.64 C 328.68 200.03 331.22 201.06 333.91 201.01 C 424.95 200.99 516.00 201.00 607.05 201.00 C 611.54 200.88 616.14 201.56 620.55 200.52 C 624.59 198.80 628.00 195.94 631.78 193.75 C 697.67 152.69 763.38 111.34 829.23 70.22 C 865.34 47.67 901.46 25.13 937.49 2.46 C 938.86 1.60 940.25 0.77 941.70 0.00 L 943.00 0.00 L 943.00 619.28 C 897.92 680.06 852.44 740.57 807.31 801.33 C 804.34 805.64 799.23 807.44 794.81 809.83 C 713.55 852.86 632.27 895.86 551.04 938.93 C 548.87 940.02 546.46 940.50 544.05 940.53 C 498.71 940.44 453.37 940.49 408.04 940.50 C 403.02 940.33 397.67 941.36 392.95 939.17 C 308.06 893.39 223.17 847.56 138.26 801.79 C 133.78 799.26 131.37 794.52 128.34 790.57 C 85.57 732.46 42.79 674.35 0.00 616.25 L 0.00 0.00 Z" />
<path fill="#fefefe" d=" M 0.84 0.00 L 941.70 0.00 C 940.25 0.77 938.86 1.60 937.49 2.46 C 901.46 25.13 865.34 47.67 829.23 70.22 C 763.38 111.34 697.67 152.69 631.78 193.75 C 628.00 195.94 624.59 198.80 620.55 200.52 C 616.14 201.56 611.54 200.88 607.05 201.00 C 516.00 201.00 424.95 200.99 333.91 201.01 C 331.22 201.06 328.68 200.03 326.43 198.64 C 217.97 132.31 109.27 66.38 0.84 0.00 Z" />
<path fill="#fefefe" d=" M 21.87 39.63 C 68.18 67.36 114.16 95.68 160.36 123.61 C 214.03 156.28 267.76 188.87 321.43 221.54 C 324.84 223.82 329.11 222.85 332.96 223.02 C 427.65 222.98 522.33 223.00 617.02 223.01 C 620.66 222.82 624.59 223.69 628.04 222.20 C 697.53 178.97 766.91 135.53 836.33 92.18 C 864.62 74.61 892.71 56.72 921.13 39.36 C 921.22 221.90 921.14 404.45 921.16 587.00 C 921.41 595.62 920.54 604.30 921.80 612.87 C 879.93 669.27 837.78 725.47 795.83 781.81 C 793.71 784.60 791.93 787.92 788.67 789.56 C 709.50 831.39 630.39 873.36 551.24 915.25 C 547.61 916.99 544.21 919.81 540.01 919.78 C 494.66 919.77 449.31 919.73 403.97 919.80 C 402.29 919.76 400.57 919.59 399.07 918.81 C 318.77 875.51 238.49 832.18 158.19 788.87 C 154.61 786.83 150.38 785.44 147.86 781.97 C 107.51 727.07 67.06 672.23 26.68 617.34 C 24.91 614.82 22.72 612.56 21.39 609.77 C 22.22 596.86 21.70 583.90 21.84 570.97 C 21.86 393.86 21.80 216.75 21.87 39.63 Z" />
<path fill="#bdbdbd" d=" M 45.12 78.87 C 45.91 79.03 47.49 79.35 48.28 79.51 C 47.36 80.94 47.07 82.61 46.71 84.25 L 47.39 83.83 C 48.01 82.70 48.70 81.62 49.38 80.52 C 94.21 109.12 139.42 137.14 184.37 165.57 C 226.14 191.83 267.92 218.09 309.69 244.36 C 311.57 245.57 313.78 246.10 316.02 246.03 C 421.47 245.89 526.94 246.17 632.40 245.89 C 665.46 224.74 698.95 204.22 732.09 183.19 C 783.17 151.27 834.15 119.21 885.20 87.25 C 890.08 84.31 894.70 80.90 899.95 78.62 C 900.07 190.39 899.97 302.17 900.00 413.94 C 899.94 477.79 900.11 541.64 899.92 605.48 C 872.49 640.63 845.84 676.39 818.53 711.63 C 805.16 729.50 791.44 747.11 777.96 764.90 C 775.22 769.07 770.63 771.25 766.29 773.36 C 692.06 814.16 617.52 854.41 543.31 895.25 C 542.02 895.99 540.48 895.96 539.05 896.04 C 494.70 895.97 450.34 895.98 405.99 896.03 C 401.24 896.04 397.59 892.44 393.48 890.54 C 320.66 851.34 247.91 812.00 175.11 772.78 C 171.86 770.77 167.85 769.61 165.64 766.27 C 154.16 750.55 142.05 735.31 130.49 719.65 C 102.55 682.22 74.32 645.02 46.23 607.71 C 45.37 606.68 44.94 605.40 45.01 604.07 C 44.98 457.72 45.04 311.37 44.98 165.02 C 44.46 158.29 46.28 151.71 46.04 145.00 C 45.94 126.67 46.04 108.34 46.00 90.01 C 45.97 86.28 45.62 82.57 45.12 78.87 Z" />
<path fill="#fefefe" d=" M 48.81 85.50 C 101.89 152.74 154.70 220.21 207.73 287.50 C 204.09 289.34 200.11 290.27 196.19 291.31 C 186.77 294.10 177.60 297.71 168.13 300.35 C 160.29 302.60 152.69 305.62 144.85 307.86 C 134.87 310.66 125.23 314.49 115.28 317.36 C 94.32 244.03 73.36 170.70 52.61 97.32 C 52.00 94.72 51.23 92.06 49.18 90.20 C 49.05 88.63 48.92 87.06 48.81 85.50 Z" />
<path fill="#fefefe" d=" M 883.06 102.03 C 887.67 96.63 891.52 90.58 896.48 85.47 C 891.73 98.28 888.50 111.57 884.63 124.66 C 866.33 188.83 847.88 252.96 829.75 317.18 C 819.70 313.96 809.58 310.96 799.62 307.48 C 789.14 304.60 778.97 300.73 768.58 297.56 C 757.87 294.70 747.67 290.18 736.82 287.82 C 751.94 269.22 766.48 250.15 781.39 231.38 C 815.25 188.24 849.24 145.21 883.06 102.03 Z" />
<path fill="#fefefe" d=" M 190.58 512.02 C 205.88 511.95 221.19 511.98 236.49 512.00 C 264.05 562.45 291.06 613.19 318.70 663.58 C 318.96 664.50 319.21 665.43 319.48 666.37 C 320.21 668.04 320.91 669.71 321.58 671.42 C 274.83 638.87 228.07 606.35 181.38 573.73 C 183.37 554.28 186.24 534.94 188.17 515.49 C 188.96 514.32 189.77 513.16 190.58 512.02 Z" />
<path fill="#fefefe" d=" M 708.12 511.99 C 723.78 511.95 739.44 512.02 755.10 511.95 C 756.13 514.55 757.02 517.24 757.19 520.06 C 759.00 537.95 761.93 555.74 763.20 573.67 C 732.29 595.28 701.27 616.73 670.42 638.42 C 654.26 649.21 638.77 660.99 622.39 671.43 C 624.24 668.47 626.27 665.55 627.29 662.17 C 628.94 656.69 632.52 652.13 634.97 647.03 C 659.40 602.04 683.59 556.93 708.12 511.99 Z" />
<path fill="#fefefe" d=" M 0.00 616.25 C 42.79 674.35 85.57 732.46 128.34 790.57 C 131.37 794.52 133.78 799.26 138.26 801.79 C 223.17 847.56 308.06 893.39 392.95 939.17 C 397.67 941.36 403.02 940.33 408.04 940.50 C 453.37 940.49 498.71 940.44 544.05 940.53 C 546.46 940.50 548.87 940.02 551.04 938.93 C 632.27 895.86 713.55 852.86 794.81 809.83 C 799.23 807.44 804.34 805.64 807.31 801.33 C 852.44 740.57 897.92 680.06 943.00 619.28 L 943.00 941.00 L 0.00 941.00 L 0.00 616.25 Z" />
<path fill="#fefefe" d=" M 529.91 778.12 C 530.50 777.79 531.69 777.13 532.28 776.80 C 522.19 806.89 512.37 837.08 502.04 867.09 C 481.80 867.01 461.56 867.13 441.32 867.02 C 431.68 837.26 421.65 807.61 411.75 777.93 C 451.14 778.12 490.53 777.74 529.91 778.12 Z" />
</svg>
